<svg id="Layer_1" enable-background="new 0 0 494.875 494.875" height="512" viewBox="0 0 494.875 494.875" width="512" xmlns="http://www.w3.org/2000/svg"><g id="XMLID_3486_"><g id="XMLID_127_"><path id="XMLID_4243_" d="m132.506 405.977v-153.285h-79.74v89.416l-22.993 45.986v44.963l140.627 19.416z" fill="#b0d8f5"/><path id="XMLID_128_" d="m132.506 405.977v-153.285h-20.438v160.558l9.677 11.873-91.972-13.143v21.077l140.627 19.416z" fill="#40a0dd"/><path id="XMLID_4241_" d="m362.369 405.977v-153.285h79.74v89.416l22.993 45.986v44.963l-140.627 19.416z" fill="#b0d8f5"/><path id="XMLID_324_" d="m442.109 342.108v-89.416h-20.438v94.241l22.993 45.985v22.329l-100.631 13.229-19.558 23.997 140.627-19.416v-44.963z" fill="#40a0dd"/><path id="XMLID_4238_" d="m362.37 252.692v153.285l-66.34 81.399h-97.185l-66.339-81.399v-153.285z" fill="#aecc90"/><path id="XMLID_129_" d="m341.932 252.692v146.011l-55.611 68.234h-104.133l16.657 20.438h97.185l66.34-81.398v-153.285z" fill="#8db965"/><path id="XMLID_3565_" d="m247.438 7.5c-126.95 0-229.863 109.776-229.863 245.192h459.727c-.001-135.416-102.914-245.192-229.864-245.192z" fill="#cf6346"/><path id="XMLID_4135_" d="m247.438 7.5c-52.233 0-100.388 18.596-138.989 49.903 34.708-18.699 77.525-35.965 121.074-35.965 140.346 0 227.764 116.158 227.764 210.816h-438.912c-.522 6.74-.801 13.554-.801 20.438h459.727c0-135.416-102.913-245.192-229.863-245.192z" fill="#c6331b"/><path id="XMLID_3563_" d="m247.438 130.096c-63.475 0-114.932 54.888-114.932 122.596h229.864c0-67.708-51.457-122.596-114.932-122.596z" fill="#fcf194"/><path id="XMLID_3765_" d="m247.438 130.096c-24.696 0-57.585 10.82-75.14 29.828 13.626-4.277 32.951-13.077 66.183-13.077 58.235 0 101.854 48.069 101.854 85.407h-206.23c-1.046 6.648-1.599 13.474-1.599 20.438h229.864c0-67.708-51.457-122.596-114.932-122.596z" fill="#eec57b"/><path id="XMLID_3558_" d="m247.438 197.326c-28.666 0-51.905 24.788-51.905 55.366h103.809c0-30.578-23.238-55.366-51.904-55.366z" fill="#cf6346"/><path id="XMLID_3766_" d="m247.438 197.326c-4.654 0-9.161.663-13.452 1.888 22.164 3.14 38.839 16.739 38.839 33.04h-73.625c-2.358 6.325-3.667 13.216-3.667 20.438h103.809c0-30.578-23.238-55.366-51.904-55.366z" fill="#c6331b"/><path id="XMLID_4239_" d="m260.552 379.748h-26.229l-13.114-127.056h52.458z" fill="#fcf194"/><path id="XMLID_4240_" d="m272.73 441.743h-50.584c-8.889 0-16.095-7.206-16.095-16.095 0-8.889 7.206-16.095 16.095-16.095h50.584c8.889 0 16.095 7.206 16.095 16.095 0 8.889-7.206 16.095-16.095 16.095z" fill="#cf6346"/></g><g id="XMLID_130_"><g fill="#fff"><path id="XMLID_2220_" d="m179.547 77.783h15.328v15h-15.328z"/><path id="XMLID_2219_" d="m86.831 153.732h15.329v15h-15.329z"/><path id="XMLID_2218_" d="m386.651 153.732h15.329v15h-15.329z"/><path id="XMLID_134_" d="m299.343 77.783h15.328v15h-15.328z"/><path id="XMLID_1867_" d="m82.928 292.145h15.329v15h-15.329z"/><path id="XMLID_1866_" d="m72.709 377.869h15.328v15h-15.328z"/><path id="XMLID_1865_" d="m396.619 292.145h15.329v15h-15.329z"/><path id="XMLID_1864_" d="m406.838 377.869h15.328v15h-15.328z"/></g><g id="XMLID_45_" fill="#181814"><path id="XMLID_47_" d="m174.524 345.083h15.329v15h-15.329z"/><path id="XMLID_54_" d="m305.023 345.083h15.329v15h-15.329z"/><path id="XMLID_77_" d="m272.73 402.053h-50.584c-13.01 0-23.595 10.585-23.595 23.595s10.584 23.595 23.595 23.595h50.584c13.01 0 23.595-10.584 23.595-23.595s-10.585-23.595-23.595-23.595zm0 32.19h-50.584c-4.739 0-8.595-3.855-8.595-8.595s3.855-8.595 8.595-8.595h50.584c4.739 0 8.595 3.856 8.595 8.595s-3.856 8.595-8.595 8.595z"/><path id="XMLID_106_" d="m484.801 260.192v-7.5c0-67.406-24.63-130.8-69.354-178.506-44.848-47.84-104.515-74.186-168.009-74.186-37.544 0-73.459 9.062-106.748 26.933-31.691 17.014-59.904 41.889-81.588 71.936l12.163 8.778c6.961-9.646 14.516-18.604 22.571-26.864l71.115 75.857c-14.534 14.105-25.864 31.875-32.687 51.918h-103.359c5.563-31.69 17.118-61.851 34.214-88.866l-12.675-8.021c-26.41 41.733-40.37 90.498-40.37 141.021v7.5h35.192v80.146l-22.993 45.985v53.27l144.177 19.906 28.832 35.377h104.311l28.832-35.377 144.177-19.906v-53.27l-22.993-45.985v-80.146zm-18.857-51.634h-103.333c-6.823-20.044-18.153-37.813-32.687-51.918l71.011-75.746c32.93 33.633 56.237 77.936 65.009 127.664zm-147.4-61.711c-18.15-13.807-39.987-22.458-63.607-23.983v-107.715c51.332 1.829 98.313 22.338 135.165 55.368zm-213.886-76.452c37.744-33.944 84.955-53.479 135.28-55.249v107.717c-23.619 1.526-45.457 10.176-63.607 23.983zm142.78 67.201c56.888 0 103.59 47.611 107.206 107.596h-48.239c-3.516-31.139-28.611-55.366-58.967-55.366s-55.451 24.227-58.967 55.366h-48.239c3.616-59.984 50.318-107.596 107.206-107.596zm-43.861 107.596c3.35-22.842 21.743-40.366 43.86-40.366s40.511 17.523 43.86 40.366zm61.776 15-11.566 112.056h-12.697l-11.566-112.056zm-240.17-15c.211-7.263.732-14.48 1.55-21.634h101.37c-1.516 7.013-2.492 14.243-2.889 21.634h-79.948zm99.823 15v74.417h-64.74v-74.417zm-87.732 166.329v-36.657l20.128-40.256h67.604v59.037l14.592 17.904 12.947 15.887zm269.347 35.988-14.153 17.366h-90.059l-14.153-17.366-48.249-59.202v-143.115h48.027 26.411l3.456 33.486h-47.5v15h49.048l8.11 78.57h39.76l8.11-78.57h49.048v-15h-47.499l3.456-33.486h26.41 48.027v143.116zm150.981-72.645v36.657l-115.272 15.916 7.959-9.766 19.58-24.025v-59.037h67.604zm-87.733-55.256v-74.417h64.74v74.417zm-.208-89.416c-.397-7.391-1.373-14.62-2.889-21.634h101.352c.818 7.121 1.355 14.334 1.568 21.634h-20.083z"/></g></g></g></svg>