<?xml version="1.0" encoding="iso-8859-1"?>
<!-- Generator: Adobe Illustrator 19.0.0, SVG Export Plug-In . SVG Version: 6.00 Build 0)  -->
<svg xmlns="http://www.w3.org/2000/svg" xmlns:xlink="http://www.w3.org/1999/xlink" version="1.1" id="Layer_1" x="0px" y="0px" viewBox="0 0 512 512" style="enable-background:new 0 0 512 512;" xml:space="preserve" width="512" height="512">
<g id="lamp">
	<g id="fill_46_">
		<path style="fill:#DD9F80;" d="M284.72,326.065v-60.724h-55.373v60.726c0,13.215-5.96,25.661-16.073,34.167    c-15.631,13.147-25.258,33.196-24.17,55.461c1.7,34.759,29.946,62.921,64.709,64.525c39.027,1.8,71.233-29.308,71.233-67.939    c0-20.811-9.352-39.428-24.079-51.899C290.821,351.79,284.72,339.361,284.72,326.065z"/>
		<path style="fill:#C68D6D;" d="M284.72,265.341h-55.373v60.726c0,13.215-5.96,25.661-16.073,34.167    c-3.157,2.655-6.063,5.596-8.692,8.776c38.728,1.735,68.766-5.003,91.056-13.924c-6.913-8.054-10.918-18.253-10.918-29.022    V265.341z"/>
		<path style="fill:#FFCD00;" d="M205.529,7.5h-32.186c-12.155,0-22.511,8.804-24.473,20.8    c-6.081,37.184-24.3,115.686-74.062,164.105c-11.632,11.318-11.607,29.99,0.217,41.106    c21.874,20.564,60.959,45.312,114.879,37.128C189.124,270.64,205.529,7.5,205.529,7.5z"/>
		<path style="fill:#FFDE55;" d="M306.471,7.5h32.186c12.155,0,22.511,8.804,24.473,20.8c6.081,37.184,24.3,115.686,74.062,164.105    c11.632,11.318,11.607,29.99-0.217,41.106c-21.874,20.564-60.959,45.312-114.879,37.128C322.876,270.64,306.471,7.5,306.471,7.5z"/>
		<path style="fill:#FFEB99;" d="M324.272,7.5H189.794c0,0-8.004,138.257-42.561,236.708c-4.94,14.074,0.359,29.686,12.944,37.693    c19.361,12.317,51.888,27.017,96.857,27.017c44.969,0,77.496-14.7,96.857-27.017c12.585-8.006,17.884-23.618,12.944-37.693    C332.276,145.757,324.272,7.5,324.272,7.5z"/>
		<path style="fill:#EAB9A4;" d="M324.892,504.5H189.174c-14.929,0-27.144-12.215-27.144-27.144v0    c0-14.929,12.215-27.144,27.144-27.144h135.718c14.929,0,27.144,12.215,27.144,27.144v0    C352.036,492.285,339.821,504.5,324.892,504.5z"/>
		<path style="fill:#FFDE55;" d="M230.224,210.231C245.892,148.614,249.264,53.247,249.956,7.5h-60.161    c0,0-8.004,138.257-42.561,236.708c-4.94,14.074,0.359,29.686,12.944,37.692c19.361,12.317,51.888,27.017,96.857,27.017    c3.976,0,7.849-0.12,11.629-0.338C244.486,290.869,217.751,259.288,230.224,210.231z"/>
		<circle style="fill:#92DD7A;" cx="368.665" cy="363.541" r="20.602"/>
	</g>
	<path id="stroke_46_" d="M442.421,187.03c-49.09-47.767-66.629-127.764-71.891-159.941C367.964,11.393,354.559,0,338.656,0H173.344   c-15.902,0-29.308,11.393-31.875,27.09c-5.262,32.177-22.8,112.174-71.891,159.941c-7.15,6.958-11.042,16.262-10.956,26.199   c0.085,9.852,4.086,18.996,11.267,25.746c15.348,14.43,40.681,32.611,75.168,38.69c2.899,4.111,6.623,7.72,11.094,10.564   c14.732,9.371,36.746,20.047,65.696,25.153v12.685c0,10.903-4.884,21.265-13.401,28.428c-8.701,7.319-15.746,16.651-20.372,26.986   c-1.692,3.781,0.001,8.218,3.782,9.91c0.995,0.445,7.347,1.974,9.91-3.781c3.692-8.29,9.356-15.765,16.336-21.636   c11.914-10.02,18.746-24.565,18.746-39.907v-10.632c11.921,1.877,28.013,1.877,40.373,0v10.629c0,15.275,6.889,29.87,18.901,40.041   c13.616,11.53,21.425,28.36,21.425,46.176c0,10.799-2.825,21.221-8.201,30.432H204.781c-4.896-8.348-7.715-17.738-8.186-27.384   c-0.202-4.137-3.711-7.325-7.857-7.125c-4.137,0.202-7.327,3.72-7.125,7.857c0.451,9.233,2.623,18.272,6.355,26.682   c-18.545,0.639-33.438,15.915-33.438,34.613c0,19.103,15.541,34.643,34.643,34.643h135.718c19.102,0,34.643-15.541,34.643-34.643   c0-18.681-14.865-33.947-33.387-34.612c4.208-9.526,6.397-19.851,6.397-30.463c0-22.234-9.743-43.237-26.732-57.623   c-8.64-7.315-13.595-17.737-13.595-28.594v-12.682c46.596-10.111,67.909-26.65,68.945-27.464v50.545   c-11.864,3.29-20.602,14.179-20.602,27.077c0,15.495,12.606,28.102,28.102,28.102c15.495,0,28.102-12.607,28.102-28.102   c0-12.898-8.737-23.787-20.602-27.077v-60.762c29.881-7.435,52.095-23.705,65.946-36.726c7.181-6.751,11.182-15.895,11.267-25.747   C453.463,203.292,449.572,193.988,442.421,187.03z M344.536,477.357c0,10.831-8.812,19.643-19.643,19.643H189.174   c-10.831,0-19.643-8.813-19.643-19.643c0-10.831,8.812-19.644,19.643-19.644h135.718   C335.724,457.713,344.536,466.525,344.536,477.357z M80.164,228.047c-4.169-3.919-6.492-9.228-6.542-14.946   c-0.05-5.804,2.229-11.245,6.418-15.32c22.488-21.882,41.057-51.817,55.191-88.975c11.708-30.778,17.319-60.214,21.042-79.296   C159.436,13.298,181.754,15,181.754,15c-2.312,30.659-12.485,143.782-41.598,226.724c-2.224,6.336-2.771,12.885-1.834,19.134   C112.173,254.083,92.57,239.711,80.164,228.047z M381.767,363.541c0,7.225-5.877,13.102-13.102,13.102   c-7.224,0-13.102-5.877-13.102-13.102c0-7.225,5.877-13.101,13.102-13.101C375.889,350.44,381.767,356.316,381.767,363.541z    M431.836,228.047c-11.984,11.267-30.872,25.222-56.008,32.231c0.818-6.073,0.237-12.413-1.919-18.552   c-4.057-11.56-7.952-24.303-11.577-37.876c-1.069-4.002-5.18-6.376-9.182-5.311c-4.001,1.069-6.379,5.18-5.311,9.182   c3.724,13.941,7.733,27.054,11.916,38.973c3.816,10.87-0.252,22.746-9.892,28.88c-18.534,11.79-49.684,25.845-92.831,25.845   s-74.297-14.055-92.831-25.845c-9.641-6.134-13.708-18.01-9.893-28.881C184.353,161.102,194.594,44.628,196.795,15H317.27   c1.629,22.043,7.687,92.176,22.969,161.412c0.892,4.045,4.896,6.601,8.94,5.707c4.044-0.893,6.6-4.895,5.707-8.939   C340.038,105.912,334.019,37.748,332.31,15c0,0,20.058-1.446,23.417,14.51c4.004,19.025,9.335,48.517,21.042,79.296   c14.134,37.157,32.703,67.093,55.191,88.975c4.189,4.075,6.467,9.517,6.418,15.32C438.329,218.819,436.005,224.128,431.836,228.047   z"/>
</g>















</svg>
